<svg width="28" height="28" viewBox="0 0 28 28" fill="none" xmlns="http://www.w3.org/2000/svg">
<path d="M23.3334 12.667C23.3334 8.89576 23.3334 7.01014 22.1618 5.83857C20.9902 4.66699 19.1046 4.66699 15.3334 4.66699H12.6667C8.89545 4.66699 7.00983 4.66699 5.83826 5.83857C4.66669 7.01014 4.66669 8.89576 4.66669 12.667V21.3337C4.66669 22.2765 4.66669 22.7479 4.95958 23.0408C5.25247 23.3337 5.72388 23.3337 6.66669 23.3337H15.3334C19.1046 23.3337 20.9902 23.3337 22.1618 22.1621C23.3334 20.9905 23.3334 19.1049 23.3334 15.3337V12.667Z" stroke="#33363F" stroke-width="2"/>
<path d="M10.5 11.667L17.5 11.667" stroke="#33363F" stroke-width="2" stroke-linecap="round" stroke-linejoin="round"/>
<path d="M10.5 16.333H14" stroke="#33363F" stroke-width="2" stroke-linecap="round" stroke-linejoin="round"/>
</svg>
