<svg width="23" height="21" viewBox="0 0 23 21" fill="none" xmlns="http://www.w3.org/2000/svg">
<path d="M9.28062 6.46494V5.72152C9.28062 4.10317 9.28062 3.294 9.75458 2.73451C10.2285 2.17502 11.0267 2.04199 12.623 1.77594L14.2942 1.49741C17.5373 0.956891 19.1589 0.686633 20.2197 1.58533C21.2806 2.48403 21.2806 4.12794 21.2806 7.41577V13.2502C21.2806 16.5381 21.2806 18.182 20.2197 19.0807C19.1589 19.9794 17.5373 19.7091 14.2942 19.1686L12.623 18.8901C11.0267 18.624 10.2285 18.491 9.75458 17.9315C9.28062 17.372 9.28062 16.5628 9.28062 14.9445V14.399" stroke="#33363F" stroke-width="2"/>
<path d="M1.28062 10.333L0.499756 9.70831L-4.57838e-07 10.333L0.499756 10.9577L1.28062 10.333ZM10.2806 11.333C10.8329 11.333 11.2806 10.8853 11.2806 10.333C11.2806 9.78072 10.8329 9.33301 10.2806 9.33301V10.333V11.333ZM5.28062 5.33301L4.49976 4.70831L0.499756 9.70831L1.28062 10.333L2.06149 10.9577L6.06149 5.9577L5.28062 5.33301ZM1.28062 10.333L0.499756 10.9577L4.49976 15.9577L5.28062 15.333L6.06149 14.7083L2.06149 9.70831L1.28062 10.333ZM1.28062 10.333V11.333H10.2806V10.333V9.33301H1.28062V10.333Z" fill="#33363F"/>
</svg>
